<svg width="16" height="18" viewBox="0 0 16 18" fill="#ffffff" xmlns="http://www.w3.org/2000/svg"><path d="M8.00357 4.95732C5.73214 4.95732 3.89999 6.76084 3.89999 8.99678C3.89999 11.2327 5.73214 13.0362 8.00357 13.0362C10.275 13.0362 12.1071 11.2327 12.1071 8.99678C12.1071 6.76084 10.275 4.95732 8.00357 4.95732ZM8.00357 11.6229C6.53571 11.6229 5.33571 10.4452 5.33571 8.99678C5.33571 7.54834 6.53214 6.3706 8.00357 6.3706C9.47499 6.3706 10.6714 7.54834 10.6714 8.99678C10.6714 10.4452 9.47142 11.6229 8.00357 11.6229V11.6229ZM13.2321 4.79209C13.2321 5.31592 12.8036 5.73428 12.275 5.73428C11.7429 5.73428 11.3179 5.3124 11.3179 4.79209C11.3179 4.27178 11.7464 3.8499 12.275 3.8499C12.8036 3.8499 13.2321 4.27178 13.2321 4.79209ZM15.95 5.74834C15.8893 4.48623 15.5964 3.36826 14.6571 2.44717C13.7214 1.52607 12.5857 1.23779 11.3036 1.17451C9.98214 1.10068 6.02142 1.10068 4.69999 1.17451C3.42142 1.23428 2.28571 1.52256 1.34642 2.44365C0.407136 3.36475 0.11785 4.48271 0.0535645 5.74482C-0.0214355 7.0456 -0.0214355 10.9444 0.0535645 12.2452C0.114279 13.5073 0.407136 14.6253 1.34642 15.5464C2.28571 16.4675 3.41785 16.7558 4.69999 16.819C6.02142 16.8929 9.98214 16.8929 11.3036 16.819C12.5857 16.7593 13.7214 16.471 14.6571 15.5464C15.5929 14.6253 15.8857 13.5073 15.95 12.2452C16.025 10.9444 16.025 7.04912 15.95 5.74834V5.74834ZM14.2429 13.6409C13.9643 14.33 13.425 14.8608 12.7214 15.1386C11.6679 15.5499 9.16785 15.455 8.00357 15.455C6.83928 15.455 4.33571 15.5464 3.28571 15.1386C2.58571 14.8644 2.04642 14.3335 1.76428 13.6409C1.34642 12.6038 1.44285 10.1429 1.44285 8.99678C1.44285 7.85068 1.34999 5.38623 1.76428 4.35264C2.04285 3.66357 2.58214 3.13271 3.28571 2.85498C4.33928 2.44365 6.83928 2.53857 8.00357 2.53857C9.16785 2.53857 11.6714 2.44717 12.7214 2.85498C13.4214 3.1292 13.9607 3.66006 14.2429 4.35264C14.6607 5.38975 14.5643 7.85068 14.5643 8.99678C14.5643 10.1429 14.6607 12.6073 14.2429 13.6409Z"></path></svg>