<svg width="18" height="20" viewBox="0 0 18 20" fill="#ffffff" xmlns="http://www.w3.org/2000/svg"><path d="M3.93411 17.5006H0.290283V5.81699H3.93411V17.5006ZM2.11024 4.22324C0.945059 4.22324 -3.05176e-05 3.2623 -3.05176e-05 2.10215C-3.05092e-05 1.54488 0.222301 1.01044 0.618053 0.616396C1.0138 0.222349 1.55056 0.000976562 2.11024 0.000976562C2.66991 0.000976562 3.20667 0.222349 3.60242 0.616396C3.99817 1.01044 4.2205 1.54488 4.2205 2.10215C4.2205 3.2623 3.27502 4.22324 2.11024 4.22324ZM17.5718 17.5006H13.9358V11.8131C13.9358 10.4576 13.9084 8.71934 12.0413 8.71934C10.1468 8.71934 9.85652 10.192 9.85652 11.7154V17.5006H6.21661V5.81699H9.71136V7.41074H9.76236C10.2488 6.49277 11.4372 5.52402 13.21 5.52402C16.8978 5.52402 17.5757 7.94199 17.5757 11.0826V17.5006H17.5718Z"></path></svg>