<svg id="placeholder-avatar" width="23" height="22" viewBox="0 0 23 22" fill="none" xmlns="http://www.w3.org/2000/svg"><mask id="mask0_7896_100860" style="mask-type:alpha" maskUnits="userSpaceOnUse" x="1" y="1" width="20" height="20"><path fill-rule="evenodd" clip-rule="evenodd" d="M1.83643 1.8335H20.6538V20.6247H1.83643V1.8335Z" fill="white"></path></mask><g mask="url(#mask0_7896_100860)"><path fill-rule="evenodd" clip-rule="evenodd" d="M4.00192 4.63894C4.00376 4.63894 3.95786 4.68661 3.90003 4.74344C3.67789 4.95886 3.218 5.40711 3.21341 6.34486C3.20607 7.65661 4.06985 10.0922 8.22904 14.2447C12.3689 18.377 14.8042 19.2497 16.1206 19.2497H16.1398C17.0789 19.2451 17.5269 18.7849 17.7435 18.564C17.8096 18.4962 17.8628 18.4467 17.9005 18.4155C18.8147 17.497 19.2829 16.8132 19.2783 16.375C19.2719 15.9277 18.7147 15.3988 17.9445 14.6673C17.6994 14.4344 17.4332 14.1814 17.1523 13.9009C16.4244 13.1759 16.0637 13.2996 15.2706 13.5783C14.1736 13.9624 12.6682 14.4849 10.3293 12.1483C7.9867 9.81078 8.51085 8.30928 8.89455 7.21386C9.17176 6.42186 9.29844 6.06069 8.5696 5.33286C8.28412 5.04869 8.02801 4.77919 7.7921 4.53169C7.06417 3.76719 6.53911 3.21444 6.09391 3.20803H6.08657C5.64687 3.20803 4.96393 3.67736 3.99733 4.64261C4.00009 4.63986 4.00101 4.63894 4.00192 4.63894ZM16.1215 20.6247C13.834 20.6247 10.8516 18.806 7.25602 15.2173C3.64668 11.6139 1.82273 8.62644 1.8365 6.33753C1.84476 4.82503 2.63878 4.05044 2.93711 3.75986C2.95272 3.74061 3.00596 3.68836 3.02432 3.67003C4.34064 2.35461 5.22829 1.82294 6.11135 1.83303C7.13669 1.84678 7.86645 2.61311 8.7899 3.58386C9.01847 3.82403 9.26631 4.08528 9.54261 4.36028C10.8828 5.69861 10.5009 6.79036 10.1944 7.66669C9.86022 8.62278 9.57107 9.44778 11.3023 11.1766C13.0354 12.9054 13.8615 12.6167 14.8153 12.2803C15.6937 11.9741 16.7842 11.5909 18.1263 12.9293C18.398 13.2006 18.6559 13.4454 18.8937 13.6718C19.8704 14.5985 20.6414 15.3309 20.6543 16.3576C20.6653 17.233 20.1329 18.1249 18.8184 19.4385L18.2364 19.0444L18.7284 19.5247C18.4375 19.8226 17.6627 20.6164 16.1472 20.6247H16.1215Z" fill="white"></path></g></svg>