<svg xmlns="http://www.w3.org/2000/svg" viewBox="0 0 1098.34 341.97"><g id="Layer_2" data-name="Layer 2"><g id="Layer_1-2" data-name="Layer 1"><path d="M252,149.1q0,12.89-4.82,22a38.56,38.56,0,0,1-12.74,14.36,54.45,54.45,0,0,1-17.08,7.6,73.93,73.93,0,0,1-18.27,2.32A72.66,72.66,0,0,1,174.31,191a44,44,0,0,1-20.16-14.77q-8.1-10.43-8.11-27.14V93.73h30.19v47.55q0,9.91,2.86,16.4a19.79,19.79,0,0,0,8,9.48,25.31,25.31,0,0,0,23.85,0,19.53,19.53,0,0,0,8-9.4q2.87-6.45,2.86-16.36V93.73H252Zm69,45H290.71V93.73H321Zm149.08,0H443.13l-52-55.88v55.88h-30V93.73H388l51.89,55.59V93.73h30.18Zm136.2-75.93H569.49v75.93H539.3V118.12H502.54V93.73H606.25Zm127.91,75.93h-31L695,173.71H651.43l-8.32,20.34h-31L656.5,93.73h33.44Zm-46.11-37.78-14.69-36.63-14.84,36.63ZM790.7,194.05H760.44V93.73H790.7Zm149.08,0H912.86l-52-55.88v55.88h-30V93.73h26.86l51.89,55.59V93.73h30.18ZM427.22,239.7h14.47v87.94h45.53v13.17h-60Zm87.63,0h14.48V340.81H514.85Zm115.78,0h14.42L602.3,341.25H599L555.44,239.7H570l30.42,71Zm40.46,0h14.47V340.81H671.09Zm132.07,0h13.76V340.81H804.47l-67.61-77.87v77.87h-13.6V239.7H735l68.18,78.54ZM908,291H942v42.85a92.55,92.55,0,0,1-37.06,8.1q-25.11,0-40.13-14.65t-15-36.16q0-22.65,15.56-37.71t39-15a69.2,69.2,0,0,1,16.22,1.84A132.83,132.83,0,0,1,939.94,247v14.77q-18.09-10.5-35.9-10.5-16.57,0-27.93,11.29a37.56,37.56,0,0,0-11.37,27.72q0,17.23,11.37,28.16t29.24,10.93q8.68,0,20.77-4l1.38-.44V303.9H908ZM1087.46,3.39a70.76,70.76,0,0,0-59.38,9.07,70.84,70.84,0,0,0-71.51-5.12A71.49,71.49,0,0,0,958.18,19a71.28,71.28,0,0,0,38.41,48.48c-.08,1.35-.12,2.7-.12,4.07A71.38,71.38,0,0,0,1027.35,130a71.76,71.76,0,0,0,9.07-7.21A70.82,70.82,0,0,0,1059,71c0-1.29,0-2.57-.11-3.84a71.26,71.26,0,0,0,37.85-48,70.09,70.09,0,0,0,1.63-11.57A69.89,69.89,0,0,0,1087.46,3.39Zm-59.46,23a60,60,0,0,1,19,33.87,59.78,59.78,0,0,1-38.47.18A60,60,0,0,1,1028,26.36ZM968.45,14.27a59.9,59.9,0,0,1,50.56,5.4,71.07,71.07,0,0,0-20.79,36.19A60.16,60.16,0,0,1,968.45,14.27Zm59,101.87a59.84,59.84,0,0,1-20-44.53,70.64,70.64,0,0,0,20,2.89,70.71,70.71,0,0,0,20.48-3A59.83,59.83,0,0,1,1027.43,116.14Zm29.82-60.59a71,71,0,0,0-20.17-35.75,59.74,59.74,0,0,1,49.34-5.21A60.16,60.16,0,0,1,1057.25,55.55ZM77.34,193a46.09,46.09,0,0,0,5-1.78,56,56,0,0,0,15.86-10,47.58,47.58,0,0,0,11.36-15.78,51.52,51.52,0,0,0,4.34-21.64,55.24,55.24,0,0,0-3.44-19.29A46.65,46.65,0,0,0,100,108,49.22,49.22,0,0,0,82.11,96.59q-10.89-4.23-25.22-4.23-18.6,0-31.52,7.2t-19.15,19A53.25,53.25,0,0,0,0,143.82,50.48,50.48,0,0,0,4.81,166.4a48.17,48.17,0,0,0,12.34,16,56.12,56.12,0,0,0,15.93,9.23c1.46.56,2.79,1.05,4,1.47C53.38,208.61,72,218.42,92.6,222.43l19.69-19.24v-.69A63.13,63.13,0,0,1,77.34,193ZM37.78,125.22q6.94-7.09,19.11-7.1A30.35,30.35,0,0,1,68.11,120a23.22,23.22,0,0,1,8.21,5.36,21.89,21.89,0,0,1,5,8.1A30.52,30.52,0,0,1,83,143.82a28.49,28.49,0,0,1-3,13.35,22,22,0,0,1-8.9,9.12,28.52,28.52,0,0,1-14.19,3.29q-12.09,0-19.07-7.13t-7-18.63Q30.83,132.3,37.78,125.22Z" style="fill:#000"/></g></g></svg>
